<svg width="50" height="37" viewBox="0 0 50 37" fill="none" xmlns="http://www.w3.org/2000/svg">
<path d="M31.8185 0C21.7731 0 13.6367 8.13636 13.6367 18.1818C13.6367 28.2272 21.7731 36.3636 31.8185 36.3636C41.864 36.3636 50.0003 28.2272 50.0003 18.1818C50.0003 8.13636 41.864 0 31.8185 0ZM31.8185 31.8182C24.2958 31.8182 18.1822 25.7045 18.1822 18.1818C18.1822 10.6591 24.2958 4.54545 31.8185 4.54545C39.3412 4.54545 45.4549 10.6591 45.4549 18.1818C45.4549 25.7045 39.3412 31.8182 31.8185 31.8182Z" fill="white"/>
<path d="M4.54545 18.1817C4.54545 12.2499 8.3409 7.20445 13.6363 5.34082V0.59082C5.79545 2.61355 0 9.70445 0 18.1817C0 26.659 5.79545 33.7499 13.6363 35.7726V31.0226C8.3409 29.159 4.54545 24.1135 4.54545 18.1817Z" fill="white"/>
</svg>
