<svg width="100" height="100" viewBox="0 0 100 100" fill="none" xmlns="http://www.w3.org/2000/svg">
<path d="M74.8538 24.7714C74.8538 11.1388 63.6965 0 50.0412 0C36.3859 0 25.2285 11.1388 25.2285 24.7714C25.2285 38.404 36.3859 49.5428 50.0412 49.5428C63.6965 49.5428 74.8538 38.4871 74.8538 24.7714ZM68.7756 21.862H59.6998C59.45 16.8745 58.4508 11.8869 56.7856 7.06567C63.0303 9.47631 67.6931 15.0457 68.7756 21.862ZM46.2943 21.862C46.6273 16.4589 47.8763 11.1388 50.0412 5.98504C52.206 11.1388 53.455 16.4589 53.788 21.862H46.2943ZM53.788 27.6808C53.455 33.084 52.206 38.404 50.0412 43.5578C47.8763 38.404 46.6273 33.084 46.2943 27.6808H53.788ZM43.2968 7.06567C41.6315 11.8869 40.6323 16.7914 40.3826 21.862H31.3068C32.3892 15.0457 37.052 9.47631 43.2968 7.06567ZM31.3068 27.6808H40.3826C40.6323 32.7515 41.6315 37.6559 43.2968 42.4771C37.052 40.0665 32.3892 34.4971 31.3068 27.6808ZM56.7856 42.4771C58.4508 37.6559 59.45 32.7515 59.6998 27.6808H68.7756C67.6931 34.4971 63.0303 40.0665 56.7856 42.4771Z" fill="white"/>
<path d="M31.7236 54.3641C26.7277 54.3641 22.6478 58.4372 22.6478 63.5079C19.7336 60.5985 19.3172 59.601 18.1515 54.1978C16.7361 46.9659 10.2415 41.729 2.91424 41.729H0V63.4248C0 73.8155 5.32889 83.6243 13.9051 89.3599V100H40.7993V63.3416C40.7993 58.3541 36.7194 54.3641 31.7236 54.3641ZM34.8876 93.9318H19.8168V85.8687C11.4072 81.5461 5.82848 72.8179 5.82848 63.3416V47.9634C9.07577 49.044 11.657 51.7872 12.4063 55.2785C14.0716 63.6741 16.6528 66.9992 24.0633 71.7373L28.4763 74.3973V63.3416C28.6428 59.1022 34.6378 59.1022 34.8876 63.3416V93.9318Z" fill="white"/>
<path d="M97.1693 41.646C89.7588 41.646 83.3475 46.8829 81.932 54.1148C80.7663 59.518 80.35 60.5155 77.4357 63.4249C77.519 58.4374 73.4391 54.2811 68.36 54.2811C63.3641 54.2811 59.2842 58.3542 59.2842 63.3418V99.7507H86.0952V89.1107C94.7546 83.375 100 73.6493 100 63.1755V41.646H97.1693ZM94.255 63.3418C94.255 72.9012 88.7596 81.5462 80.35 85.9519V94.0151H65.1959V63.3418C65.3625 59.1024 71.3575 59.1024 71.6072 63.3418V74.3143L76.0202 71.6543C83.514 66.9161 86.0952 63.5911 87.6772 55.1955C88.3433 51.7042 91.0077 48.961 94.255 47.8804V63.3418Z" fill="white"/>
</svg>
