<svg width="92" height="100" viewBox="0 0 92 100" fill="none" xmlns="http://www.w3.org/2000/svg">
<path d="M58.8356 44.4365H14.6904V48.1707H58.8356V44.4365Z" fill="white"/>
<path d="M14.6904 55.564V59.2981H50.5259L54.2356 55.564H14.6904Z" fill="white"/>
<path d="M14.6904 66.6914V70.4255H39.5453L43.1808 66.6914H14.6904Z" fill="white"/>
<path d="M33.0904 77.8193H14.6904V81.5535H33.0904V77.8193Z" fill="white"/>
<path d="M90.8871 39.6565L85.6936 34.4287C84.2839 33.0097 81.9097 33.0097 80.5 34.4287C67.2194 47.7969 53.8645 61.1651 40.5097 74.6826C40.5097 81.1053 40.5097 79.6863 40.5097 85.2875C49.3387 85.2875 47.1129 85.2875 50.8226 85.2875C52.7516 83.3458 61.2097 74.832 69.9645 66.0194V92.6811C69.9645 94.6975 68.3323 96.4152 66.2548 96.4152H7.34516C5.34194 96.4152 3.63548 94.7722 3.63548 92.6811V25.9149C3.63548 23.8984 5.26774 22.1807 7.34516 22.1807H14.6903V29.5743H58.8355V22.1807H66.1806C68.1839 22.1807 69.8903 23.8238 69.8903 25.9149V39.6565L73.6 35.9223V25.9149C73.6 21.8073 70.3355 18.5213 66.2548 18.5213H58.2419C57.0548 15.1606 54.3097 12.5467 50.8968 11.5758C49.1903 11.053 47.929 9.78342 47.4097 8.06572C46.0742 3.36072 41.8452 0 36.8 0C31.7548 0 27.5258 3.36072 26.1903 8.06572C25.671 9.78342 24.4097 11.053 22.7032 11.5758C19.2903 12.5467 16.5452 15.1606 15.3581 18.5213H7.34516C3.26452 18.5213 0 21.8073 0 25.9149V92.6064C0 96.714 3.26452 100 7.34516 100H66.2548C70.3355 100 73.6 96.714 73.6 92.6064V62.2853C81.5387 54.2943 88.8839 46.9007 90.8871 44.8842C92.371 43.4653 92.371 41.0754 90.8871 39.6565ZM18.4 22.1807C18.4 18.8947 20.6258 15.9821 23.7419 15.0859C26.6355 14.2644 28.9355 11.9492 29.7516 9.0366C30.6419 5.89993 33.5355 3.73413 36.8 3.73413C40.0645 3.73413 42.9581 5.89993 43.8484 9.11128C44.6645 12.0239 46.9645 14.3391 49.8581 15.1606C52.9742 16.0568 55.2 18.9694 55.2 22.2554V25.9895H18.4V22.1807ZM49.3387 81.5534C48.3742 81.5534 48.0032 81.5534 46.6677 81.5534L44.2194 79.0889V76.1763C45.1097 75.2801 45.7774 74.6079 46.6677 73.7117L51.8613 78.9395L49.3387 81.5534ZM54.4581 76.3256L49.2645 71.0978L72.7097 47.4981L77.9032 52.7259L54.4581 76.3256ZM80.5 50.112L75.3064 44.8842L77.9032 42.2704L83.0968 47.4981L80.5 50.112ZM85.6936 44.8842L80.5 39.6565L83.0968 37.0426L88.2903 42.2704L85.6936 44.8842Z" fill="white"/>
</svg>
