<svg width="80" height="51" viewBox="0 0 80 51" fill="none" xmlns="http://www.w3.org/2000/svg">
<path fill-rule="evenodd" clip-rule="evenodd" d="M29.5582 4.69202C29.5582 7.27263 27.4468 9.38403 24.8662 9.38403C22.2855 9.38403 20.1741 7.27263 20.1741 4.69202C20.1741 2.11141 22.2855 0 24.8662 0C27.4468 0 29.5582 2.11141 29.5582 4.69202ZM18.7681 31.6707L16.4221 41.9931L0 38.7087L0.938404 34.0167L12.4338 36.3627L16.1875 17.36L11.9646 19.0022V26.9787H7.27263V15.9524L19.4719 10.7912C19.8238 10.7912 20.117 10.7326 20.4103 10.6739C20.7035 10.6152 20.9968 10.5566 21.3487 10.5566C22.9909 10.5566 24.3985 11.495 25.3369 12.9026L27.6829 16.6562C29.5597 19.9406 33.3133 22.2866 37.7707 22.2866V26.9787C32.6095 26.9787 27.9175 24.6327 24.8677 21.1136L23.4601 28.1517L28.3867 32.8437V50.4387H23.6947V36.3627L18.7681 31.6707Z" fill="white"/>
<path fill-rule="evenodd" clip-rule="evenodd" d="M71.7877 4.69202C71.7877 7.27263 69.6763 9.38403 67.0956 9.38403C64.515 9.38403 62.4036 7.27263 62.4036 4.69202C62.4036 2.11141 64.515 0 67.0956 0C69.6763 0 71.7877 2.11141 71.7877 4.69202ZM60.9976 31.6707L58.6516 41.9931L42.2295 38.7087L43.1679 34.0167L54.6633 36.3627L58.417 17.36L54.1941 19.0022V26.9787H49.5021V15.9524L61.7014 10.7912C62.0533 10.7912 62.3465 10.7326 62.6398 10.6739C62.933 10.6152 63.2263 10.5566 63.5782 10.5566C65.2204 10.5566 66.628 11.495 67.5664 12.9026L69.9124 16.6562C71.7892 19.9406 75.5428 22.2866 80.0002 22.2866V26.9787C74.839 26.9787 70.147 24.6327 67.0972 21.1136L65.6896 28.1517L70.6162 32.8437V50.4387H65.9242V36.3627L60.9976 31.6707Z" fill="white"/>
</svg>
