<svg width="100" height="44" viewBox="0 0 100 44" fill="none" xmlns="http://www.w3.org/2000/svg">
<path fill-rule="evenodd" clip-rule="evenodd" d="M88.7705 43.3887H11.2295C5.0498 43.3887 0 38.3389 0 32.1594V11.2292C0 5.0498 5.0498 0 11.2295 0H88.7705C94.9502 0 100 5.0498 100 11.2292V32.1594C100 38.3389 94.9502 43.3887 88.7705 43.3887ZM11.2295 4.05322C7.24219 4.05322 4.05273 7.24243 4.05273 11.2292V32.1594C4.05273 36.1462 7.24219 39.3354 11.2295 39.3354H88.7705C92.7578 39.3354 95.9473 36.1462 95.9473 32.1594V11.2292C95.9473 7.24243 92.7578 4.05322 88.7705 4.05322H11.2295ZM52.5586 11.4951H47.1758V16.8772H52.5586V11.4951ZM47.1758 26.5115H52.5586V31.8936H47.1758V26.5115ZM18.2061 31.8936V28.0398L21.7275 24.5183L23.123 23.1228L24.4512 21.7939L25.5811 20.6643C25.7676 20.4783 25.9326 20.313 26.0654 20.1685C26.1689 20.0552 26.2539 19.9546 26.3125 19.8669L26.3301 19.8457C26.6562 19.4541 26.9814 19.064 27.2422 18.7375C27.4004 18.5398 27.5342 18.342 27.6592 18.1584C27.7441 18.0334 27.8252 17.9148 27.9062 17.8071C27.9717 17.6443 28.0371 17.4973 28.1025 17.3506C28.1455 17.2549 28.1875 17.1594 28.2295 17.0598L28.3057 16.877C28.3379 16.7175 28.3701 16.5581 28.3945 16.3987C28.4209 16.2258 28.4385 16.0532 28.4385 15.8804C28.4385 15.1494 28.1729 14.5515 27.5742 14.0198C26.9766 13.4883 26.2451 13.2224 25.249 13.2224C24.252 13.2224 23.5215 13.4883 22.9902 14.0864C22.458 14.6179 22.0596 15.2822 21.8604 15.9468L18.0068 14.3521C18.2061 13.7542 18.4717 13.156 18.8701 12.5581C19.2686 11.96 19.7344 11.3621 20.3984 10.897C20.9961 10.4319 21.7275 10.0332 22.5908 9.70093C23.4551 9.36865 24.3848 9.23584 25.3818 9.23584C26.5117 9.23584 27.5078 9.43506 28.4385 9.76733C29.3682 10.0996 30.0996 10.5647 30.7637 11.1628C31.3623 11.7607 31.8936 12.4253 32.2256 13.2224C32.5576 14.0198 32.7568 14.8835 32.7568 15.814C32.7568 17.2092 32.4248 18.4717 31.7607 19.6677C31.3721 20.3674 30.915 21.0215 30.4033 21.6433C30.04 22.0847 29.6494 22.5098 29.2354 22.9236L26.4453 25.7141L26.4102 25.7483C25.6865 26.4719 24.8359 27.3223 23.9199 28.1726L24.0527 28.3721H33.0898V31.8936H18.2061ZM71.1631 32.093C72.0264 32.2922 72.8906 32.4253 73.8203 32.4253C74.9502 32.4253 76.0137 32.2258 76.8105 32.0266C77.7412 31.6943 78.6045 31.2292 79.2695 30.6311C80 30.0332 80.4648 29.3022 80.8643 28.5049C81.1963 27.7075 81.3955 26.8438 81.3955 25.8472C81.3955 24.4517 81.0635 23.3223 80.3984 22.3918C79.7344 21.4617 78.8701 20.7974 77.8076 20.3987V20.1328C78.1396 19.9336 78.4717 19.6677 78.8037 19.4019C79.1357 19.1362 79.4023 18.7375 79.668 18.3389C79.9336 17.9402 80.1992 17.4751 80.332 16.9434C80.5312 16.4783 80.5977 15.8804 80.5977 15.2158C80.5977 14.3521 80.3984 13.5547 80.0664 12.824C79.7344 12.1594 79.2031 11.4949 78.6045 10.9634C78.0068 10.4319 77.209 10.0332 76.3457 9.70093C75.4814 9.36865 74.4854 9.23584 73.4219 9.23584C72.3584 9.23584 71.4287 9.43506 70.6309 9.70093C70.2295 9.83496 69.8447 10.0027 69.4854 10.1956C69.1309 10.3855 68.8018 10.5999 68.5049 10.8306C67.9072 11.2957 67.4414 11.8271 67.043 12.4253C66.9287 12.5771 66.8262 12.7346 66.7324 12.8943C66.498 13.2932 66.3223 13.7068 66.1797 14.0864L70.0996 15.6809C70.2988 15.0166 70.6309 14.4849 71.1631 13.9534C71.6943 13.4219 72.4248 13.156 73.3555 13.156C74.2861 13.156 74.9502 13.4219 75.4814 13.887C75.7939 14.1599 76.0146 14.4788 76.1436 14.8433C76.2344 15.0999 76.2793 15.3792 76.2793 15.6809C76.2793 16.146 76.2129 16.6113 76.0137 16.9434C75.8809 17.2756 75.6143 17.6079 75.2822 17.8071C75.1602 17.9292 75.0107 18.0232 74.8457 18.1021C74.6514 18.1951 74.4355 18.2668 74.2197 18.3389C73.9775 18.3792 73.7363 18.4194 73.4805 18.4448C73.3135 18.4614 73.1406 18.4717 72.957 18.4717H71.2295V22.3254H73.1562C74.4189 22.3254 75.3486 22.5913 76.0801 23.1228C76.4053 23.3594 76.6514 23.6487 76.8242 23.9788C77.04 24.3904 77.1426 24.8657 77.1426 25.3821C77.1426 25.7808 77.0762 26.2458 76.877 26.5781C76.6777 26.9102 76.4785 27.2424 76.1465 27.5083C75.8809 27.7739 75.4814 27.9734 75.083 28.1062C74.8496 28.1731 74.6328 28.2231 74.416 28.2563C74.2012 28.2893 73.9854 28.3057 73.7539 28.3057C72.7578 28.3057 71.8936 27.9734 71.2295 27.4419C70.498 26.9102 70.0332 26.0464 69.7676 24.9834L65.7803 26.5781C66.0469 27.5747 66.4453 28.4385 66.9766 29.1694C67.5088 29.9001 68.1729 30.5647 68.8369 31.0298C69.5684 31.4949 70.2988 31.8271 71.1631 32.093Z" fill="white"/>
</svg>
