<svg width="148" height="139" viewBox="0 0 148 139" fill="none" xmlns="http://www.w3.org/2000/svg">
<g filter="url(#filter0_d)">
<path d="M40.0986 117.9C34.851 113.989 30.2277 109.29 26.3894 103.967C6.22877 76.3363 5.49419 34.45 6.14346 17.38C6.14346 17.3541 6.14346 17.3274 6.14346 17.3028L6.1482 17.1826C6.22674 14.9081 6.35131 12.6459 6.53885 10.5935C6.54291 10.5484 6.5463 10.5026 6.55104 10.4568C6.55916 10.3782 6.56526 10.3004 6.5727 10.2232C6.57744 10.1863 6.58083 10.148 6.58354 10.1111C6.60452 9.86309 6.61806 9.73533 6.61806 9.73533H6.62483C6.94304 6.68332 7.4217 4.19634 8.1292 3H41.3559L50.0638 9.71756H24.8106L24.8593 9.73737H50.0882L58.893 16.528L65.6241 9.73669H82.3982L89.1286 16.5287L97.93 9.73669H123.162L123.211 9.71688H97.9577L106.668 3H139.666V3.09292L139.894 3C141.611 5.89691 141.972 16.3764 141.989 24.1119C141.989 24.1803 141.989 24.2486 141.989 24.3169C141.989 24.9626 141.989 25.5884 141.989 26.1862C141.989 26.2008 141.989 26.2154 141.989 26.23C141.989 26.2443 141.989 26.2587 141.989 26.2716C141.97 30.1381 141.877 32.899 141.877 32.899L141.849 32.8683C140.609 66.5709 130.339 125.652 73.9976 129.88C60.067 128.835 48.9555 124.436 40.0986 117.9ZM37.9396 92.3124C41.6601 97.7635 46.4739 102.365 52.0692 105.819L124.49 32.735C124.417 26.9276 124.042 23.2927 124.042 23.2927H106.333L37.9396 92.3124Z" fill="white"/>
</g>
<path d="M141.99 25.2778C141.99 25.0359 141.99 24.7905 141.99 24.5425C141.968 21.2821 141.871 18.4809 141.761 16.27C141.747 15.9967 141.734 15.7351 141.72 15.4837C141.554 12.431 141.376 10.697 141.376 10.697H97.9373L89.1359 17.489L82.4049 10.697H65.6314L58.9004 17.489L50.099 10.697H6.63011C6.63011 10.697 6.61656 10.8247 6.59557 11.0727C6.59557 11.1096 6.58956 11.1472 6.58482 11.1841C6.57738 11.2613 6.57128 11.3397 6.56383 11.4183C6.55638 11.4969 6.55026 11.568 6.54416 11.6438C6.44464 12.8381 6.27877 15.1283 6.15622 18.263C6.15622 18.2876 6.15622 18.3134 6.15622 18.3394C5.50763 35.4086 6.24231 77.295 26.3996 104.926C30.2379 110.249 34.861 114.948 40.1086 118.86C48.9662 125.395 60.0771 129.791 74.007 130.84C130.345 126.61 140.618 67.5312 141.858 33.8286C141.944 31.5001 141.986 29.2917 141.999 27.2331C142 27.2047 142 27.1761 141.999 27.1477C141.992 26.5492 141.993 25.9235 141.99 25.2778ZM52.0699 106.778C46.4746 103.324 41.6609 98.7227 37.9408 93.2713L106.334 24.251H124.043C124.043 24.251 124.419 27.8884 124.491 33.6931L52.0699 106.778Z" fill="#0B214D"/>
<path d="M22.4372 66.9905L22.9078 68.6679L17.9654 71.2534L23.528 70.8817L23.9714 72.4634L19.0398 75.0809L24.5916 74.6775L25.0472 76.3015L17.2322 76.6105L16.7143 74.7656L20.7711 72.49L16.1375 72.7099L15.6195 70.865L22.4372 66.9905Z" fill="white"/>
<path d="M25.5574 77.4856L26.1221 79.0856L18.9605 81.6601L18.3959 80.0601L25.5574 77.4856Z" fill="white"/>
<path d="M24.7197 88.5273C23.0434 89.2535 21.7131 88.517 20.9847 86.8055L19.7931 84.0042L26.7793 80.9763L27.9796 83.7967C28.6993 85.489 28.3128 86.9683 26.6364 87.6952L24.7197 88.5273ZM25.9716 86.1359C26.1404 86.0792 26.2945 85.9853 26.4229 85.861C26.5513 85.7368 26.6506 85.5851 26.7138 85.4173C26.777 85.2496 26.8026 85.0698 26.7885 84.8909C26.7744 84.712 26.721 84.5384 26.6323 84.3828L26.0961 83.1228L21.8045 84.984L22.3319 86.2227C22.3811 86.397 22.4683 86.558 22.587 86.6941C22.7057 86.8301 22.8529 86.9377 23.0181 87.009C23.1832 87.0803 23.3621 87.1137 23.5415 87.1064C23.721 87.0991 23.8967 87.0511 24.0556 86.9666L25.9716 86.1359Z" fill="white"/>
<path d="M29.9681 88.2146L32.5085 92.9082L31.222 93.6174L29.4881 90.4151L28.0868 91.1871L29.56 93.9093L28.2735 94.6183L26.8003 91.8963L25.39 92.674L27.1233 95.877L25.837 96.5862L23.296 91.8923L29.9681 88.2146Z" fill="white"/>
<path d="M35.0089 97.063L36.1165 98.3991L32.6522 102.794L37.5795 100.165L38.6241 101.425L35.1814 105.847L40.0879 103.191L41.1603 104.485L34.1517 107.986L32.933 106.516L35.7157 102.767L31.575 104.876L30.3563 103.406L35.0089 97.063Z" fill="white"/>
<path d="M43.2744 112.795C42.0896 114.196 40.5751 114.132 39.1702 112.922C37.7823 111.727 37.4777 110.228 38.6631 108.826L40.1574 107.059C41.3415 105.658 42.8567 105.724 44.2615 106.932C45.6495 108.127 45.9541 109.627 44.7687 111.028L43.2744 112.795ZM43.4876 109.926C43.614 109.799 43.711 109.646 43.7715 109.477C43.8319 109.309 43.8544 109.128 43.8374 108.95C43.8204 108.771 43.764 108.599 43.6728 108.444C43.5815 108.29 43.4575 108.159 43.3096 108.059C43.1891 107.925 43.0405 107.819 42.8744 107.75C42.7084 107.681 42.5291 107.65 42.3498 107.66C42.1705 107.67 41.9956 107.72 41.8379 107.807C41.6802 107.894 41.5438 108.015 41.4384 108.162L39.9441 109.929C39.8178 110.055 39.7208 110.209 39.6603 110.377C39.5999 110.546 39.5773 110.726 39.5944 110.905C39.6114 111.084 39.6676 111.257 39.7588 111.411C39.8501 111.565 39.9743 111.697 40.1222 111.796C40.2427 111.931 40.3914 112.036 40.5575 112.105C40.7236 112.174 40.9029 112.204 41.0822 112.195C41.2615 112.185 41.4364 112.135 41.5941 112.048C41.7517 111.961 41.8881 111.84 41.9934 111.693L43.4876 109.926Z" fill="white"/>
<path d="M47.8034 109.939L50.563 111.647C51.9055 112.477 52.3991 113.657 51.4628 115.199C50.8156 116.265 50.0072 116.652 49.1277 116.507L48.9043 119.621L47.2381 118.59L47.5049 115.76L46.5882 115.193L45.2659 117.37L43.8307 116.482L47.8034 109.939ZM47.3538 113.929L48.6322 114.719C49.1136 115.018 49.5549 114.982 49.9815 114.28C50.408 113.578 50.2225 113.17 49.7499 112.878L48.4724 112.087L47.3538 113.929Z" fill="white"/>
<path d="M54.1695 113.688L55.7179 114.354L53.3098 120.05L56.6359 121.485L56.0606 122.846L51.1858 120.746L54.1695 113.688Z" fill="white"/>
<path d="M64.897 122.54C64.4231 124.316 63.0251 124.914 61.2411 124.429L58.3257 123.635L60.3074 116.227L63.2438 117.026C65.0041 117.505 65.9153 118.73 65.44 120.511L64.897 122.54ZM63.8137 120.066C63.8744 119.897 63.8971 119.717 63.8802 119.538C63.8633 119.359 63.8072 119.187 63.716 119.032C63.6249 118.878 63.5009 118.746 63.3531 118.646C63.2052 118.546 63.0372 118.481 62.8612 118.454L61.5504 118.098L60.3319 122.649L61.6182 123C61.7842 123.069 61.9633 123.101 62.1426 123.091C62.322 123.082 62.4969 123.032 62.6547 122.945C62.8126 122.859 62.9495 122.738 63.0552 122.592C63.161 122.445 63.233 122.277 63.2661 122.099L63.8137 120.066Z" fill="white"/>
<path d="M77.6561 123.525C77.8443 125.357 76.7522 126.418 74.9154 126.61C73.1002 126.8 71.8166 125.987 71.6284 124.155L71.3914 121.844C71.2038 120.013 72.2953 118.951 74.1314 118.758C75.9465 118.569 77.2308 119.382 77.4184 121.214L77.6561 123.525ZM75.7448 121.39C75.7417 121.21 75.699 121.033 75.6198 120.872C75.5407 120.711 75.427 120.57 75.2871 120.459C75.1472 120.348 74.9844 120.269 74.8107 120.229C74.6371 120.189 74.4568 120.189 74.283 120.228C74.1037 120.224 73.9256 120.259 73.7616 120.332C73.5977 120.406 73.4521 120.516 73.3354 120.653C73.2186 120.79 73.1338 120.952 73.0869 121.127C73.04 121.302 73.0322 121.485 73.0643 121.663L73.3013 123.974C73.3042 124.154 73.3468 124.331 73.4259 124.492C73.505 124.653 73.6187 124.794 73.7587 124.906C73.8986 125.017 74.0615 125.095 74.2352 125.135C74.4089 125.175 74.5891 125.175 74.763 125.136C74.9423 125.141 75.1204 125.105 75.2843 125.031C75.4482 124.958 75.594 124.849 75.7108 124.711C75.8275 124.574 75.9123 124.412 75.9592 124.237C76.0061 124.062 76.0137 123.879 75.9817 123.701L75.7448 121.39Z" fill="white"/>
<path d="M78.9348 118.319L83.9205 117.321L84.2062 118.771L80.8718 119.44L81.2462 121.342L84.0478 120.782L84.3335 122.233L81.5319 122.794L82.0667 125.514L80.4155 125.844L78.9348 118.319Z" fill="white"/>
<path d="M88.7695 115.848L91.7525 114.582C93.2041 113.967 94.4417 114.248 95.1377 115.914C95.6177 117.066 95.458 117.953 94.8284 118.59L97.2061 120.589L95.4045 121.355L93.2813 119.486L92.2901 119.906L93.2718 122.26L91.7201 122.921L88.7695 115.848ZM91.7201 118.543L93.1019 117.956C93.6225 117.735 93.8514 117.352 93.5352 116.595C93.219 115.838 92.7823 115.75 92.2711 115.966L90.89 116.554L91.7201 118.543Z" fill="white"/>
<path d="M95.4991 112.83L100.027 110.05L100.789 111.315L97.7001 113.211L98.5302 114.588L101.156 112.975L101.918 114.241L99.2925 115.853L100.128 117.238L103.217 115.341L103.98 116.605L99.4516 119.385L95.4991 112.83Z" fill="white"/>
<path d="M108.97 109.087L109.012 109.137C110.182 110.547 109.865 112.045 108.45 113.241C107.051 114.422 105.538 114.47 104.364 113.061L102.887 111.279C101.717 109.867 102.033 108.371 103.448 107.176C104.847 105.994 106.36 105.946 107.534 107.355L107.576 107.406L106.285 108.495L106.243 108.445C106.141 108.298 106.008 108.176 105.853 108.087C105.698 107.999 105.526 107.946 105.348 107.933C105.171 107.92 104.993 107.947 104.827 108.012C104.661 108.077 104.512 108.178 104.389 108.308C104.238 108.406 104.11 108.536 104.015 108.69C103.92 108.844 103.861 109.017 103.84 109.197C103.82 109.377 103.84 109.56 103.898 109.731C103.957 109.902 104.052 110.058 104.178 110.188L105.656 111.969C105.758 112.116 105.891 112.238 106.046 112.327C106.201 112.415 106.373 112.468 106.55 112.481C106.728 112.494 106.906 112.467 107.072 112.402C107.237 112.337 107.387 112.236 107.509 112.106C107.661 112.008 107.788 111.878 107.883 111.724C107.979 111.57 108.038 111.397 108.059 111.217C108.079 111.037 108.059 110.855 108.001 110.684C107.942 110.512 107.847 110.356 107.721 110.227L107.679 110.176L108.97 109.087Z" fill="white"/>
<path d="M106.913 104.204L109.067 101.765C110.115 100.58 111.353 100.298 112.69 101.502C113.614 102.332 113.848 103.204 113.551 104.051L116.548 104.825L115.247 106.297L112.535 105.531L111.819 106.34L113.708 108.039L112.588 109.308L106.913 104.204ZM110.725 105.357L111.722 104.228C112.098 103.803 112.142 103.358 111.534 102.81C110.926 102.262 110.494 102.373 110.125 102.791L109.128 103.92L110.725 105.357Z" fill="white"/>
<path d="M111.757 98.5101L114.765 94.1064L115.972 94.9461L113.919 97.9526L115.234 98.8667L116.978 96.3126L118.185 97.1523L116.44 99.7064L117.764 100.627L119.817 97.6204L121.024 98.4601L118.016 102.864L111.757 98.5101Z" fill="white"/>
<path d="M125.341 90.6646L124.474 92.2847L122.828 91.9477L121.605 94.2339L122.787 95.4383L121.998 96.9142L116.49 91.061L117.47 89.2278L125.341 90.6646ZM120.526 93.1347L121.321 91.6498L118.516 91.08L120.526 93.1347Z" fill="white"/>
<path d="M118.547 87.1747L120.955 81.6458L122.298 82.2409L121.433 84.2286L127.052 86.7196L126.375 88.2746L120.756 85.7829L119.89 87.7698L118.547 87.1747Z" fill="white"/>
<path d="M121.42 80.306L122.006 78.7134L129.133 81.3826L128.548 82.9759L121.42 80.306Z" fill="white"/>
<path d="M129.184 72.5456C130.928 73.0867 131.47 74.5152 130.927 76.2964C130.391 78.0564 129.147 78.9322 127.406 78.3911L125.206 77.7079C123.462 77.1667 122.92 75.7376 123.462 73.9564C123.999 72.1964 125.242 71.3212 126.983 71.8623L129.184 72.5456ZM126.489 73.487C126.324 73.4206 126.146 73.3918 125.969 73.403C125.792 73.4141 125.619 73.4648 125.464 73.5514C125.308 73.638 125.174 73.7583 125.07 73.9037C124.966 74.0491 124.896 74.2159 124.864 74.3921C124.789 74.5571 124.752 74.737 124.756 74.9182C124.759 75.0995 124.802 75.2777 124.882 75.44C124.962 75.6022 125.077 75.7443 125.219 75.856C125.36 75.9677 125.525 76.0458 125.7 76.0852L127.901 76.7684C128.066 76.8349 128.243 76.8636 128.421 76.8525C128.598 76.8413 128.77 76.7906 128.926 76.704C129.081 76.6174 129.216 76.4972 129.32 76.3517C129.423 76.2063 129.494 76.0396 129.526 75.8633C129.6 75.6983 129.637 75.5185 129.634 75.3372C129.631 75.156 129.587 74.9777 129.507 74.8155C129.427 74.6532 129.312 74.5114 129.17 74.3998C129.029 74.2881 128.864 74.2096 128.689 74.1703L126.489 73.487Z" fill="white"/>
<path d="M128.33 68.3166L132.718 69.3531L132.334 71.0065L124.932 69.2587L125.291 67.7121L130.317 65.995L125.929 64.9585L126.313 63.3044L133.715 65.0516L133.356 66.5998L128.33 68.3166Z" fill="white"/>
<path d="M124.356 42.416C123.273 67.5979 115.303 110.394 73.9969 113.495C62.4197 112.626 53.4597 108.637 46.5384 102.79C41.5614 98.5004 37.435 93.2981 34.3777 87.458C20.1532 61.0709 23.9513 24.2522 23.9513 24.2522H124.044C124.547 30.2931 124.652 36.3611 124.356 42.416Z" fill="white"/>
<path d="M124.357 42.416L46.5397 102.79C41.5623 98.5006 37.4357 93.2982 34.3783 87.4581L115.845 24.2522H124.044C124.547 30.2931 124.652 36.361 124.357 42.416Z" fill="#EC2939"/>
<path d="M50.064 10.6762H24.8108L24.8602 10.6959L27.5723 11.7891L6.14765 33.8578C6.14765 33.8578 5.8897 26.0687 6.14765 18.3386C6.14765 18.3119 6.14765 18.2861 6.14765 18.2615C6.22754 15.8968 6.35624 13.5403 6.55393 11.4161C6.56138 11.3376 6.56816 11.2595 6.57493 11.1816C6.59185 11.019 6.60808 10.8558 6.62501 10.6945C6.94321 7.64048 7.41913 5.15362 8.12866 3.95728H41.3553L50.064 10.6762Z" fill="#0B214D"/>
<path d="M75.7211 3.95874L82.379 10.6763H65.6435L72.3014 3.95874H75.7211Z" fill="#0B214D"/>
<path d="M141.989 27.147C141.989 27.1757 141.989 27.2051 141.989 27.2324C141.969 31.0988 141.877 33.8599 141.877 33.8599L141.848 33.8289L120.454 11.7892L123.166 10.696L123.217 10.6763H97.9632L106.671 3.95874H139.669V4.05182L139.899 3.95874C141.63 6.88093 141.982 17.5211 141.994 25.2758C141.993 25.9235 141.991 26.5492 141.989 27.147Z" fill="#0B214D"/>
<path d="M75.8523 48.0409C75.9213 47.8359 76.0053 47.621 76.1042 47.396C76.203 47.171 76.307 46.9534 76.4162 46.7435C76.5246 46.5337 76.6105 46.3628 76.6728 46.2337C76.9551 45.7102 77.0857 45.1171 77.0493 44.5223C77.0271 44.3035 76.9416 44.0962 76.8035 43.9261C76.6654 43.756 76.4809 43.6308 76.2728 43.5658C76.6644 43.4652 77.0431 43.319 77.4014 43.1305C77.7519 42.9487 78.0838 42.7328 78.3925 42.4856C78.6835 42.2527 78.9535 41.9942 79.1989 41.7129C79.4245 41.4554 79.6254 41.1765 79.7988 40.8806C80.0593 40.4833 80.2044 40.0204 80.2178 39.5441C80.2123 39.1875 80.0715 38.8466 79.8244 38.5917C79.5349 38.312 79.1785 38.1131 78.79 38.0139C78.2909 37.8765 77.775 37.8108 77.2577 37.819H64.5804L59.068 44.5249H59.0308L61.3462 37.819H57.7579L52.3532 44.4362H52.3167L54.5245 37.819H48.2232L42.7109 44.5249H42.6736L44.9885 37.819H41.4035L35.9988 44.4362H35.9623L38.1701 37.819H34.1755L31.5832 48.5316H35.556L40.7055 42.0052H40.7422L38.4017 48.5316H42.3561L49.9241 40.3205L47.937 48.5316H51.9097L57.0592 42.0052H57.0965L54.7554 48.5316H58.7098L66.2323 40.3695H68.036L63.3292 48.5316H67.3914L69.5458 44.7955H71.7074C72.0016 44.7686 72.2972 44.8313 72.5559 44.9753C72.6314 45.0301 72.6932 45.1018 72.7365 45.1848C72.7799 45.2678 72.8036 45.3599 72.8056 45.4537C72.8067 45.6862 72.7589 45.9161 72.6655 46.1286C72.5644 46.3787 72.454 46.6293 72.3344 46.8802C72.199 47.1613 72.076 47.4389 71.9655 47.7136C71.8591 47.9792 71.7754 48.2536 71.7155 48.5336H75.7819C75.7594 48.366 75.7838 48.1953 75.8523 48.0409ZM74.9091 42.0025C74.7181 42.1385 74.5091 42.2469 74.2883 42.3245C74.0735 42.3992 73.8505 42.447 73.6241 42.4666C73.3985 42.4862 73.1924 42.4961 73.006 42.4966H70.8808L72.1089 40.3662H74.0121C74.5057 40.2986 75.0078 40.3962 75.4414 40.6437C75.6178 40.8291 75.6082 41.0918 75.4123 41.432C75.2873 41.6568 75.1153 41.8514 74.9085 42.0025H74.9091Z" fill="#0B214D"/>
<path d="M93.9563 98.102C94.7479 98.102 95.5495 97.9569 96.3424 97.6516C100.318 97.4728 102.383 92.4693 100.953 86.4757C96.4344 88.2145 89.5484 89.7698 85.572 89.9486C86.7509 94.8897 90.2366 98.1017 93.9563 98.102ZM93.9571 98.1704V98.102L93.9569 98.1704C93.0283 98.1704 92.1064 97.9736 91.216 97.5856C90.3394 97.2036 89.5147 96.6458 88.7648 95.9275C87.2082 94.4373 86.0814 92.3753 85.5062 89.9646L85.487 89.8839L85.5691 89.8802C89.5315 89.702 96.4219 88.1461 100.929 86.412L101.001 86.3843L101.019 86.4597C101.902 90.1631 101.485 93.641 99.9032 95.7631C98.9988 96.9764 97.7725 97.6526 96.3563 97.7194C95.5751 98.0186 94.7679 98.1704 93.9571 98.1704Z" fill="#0B214D"/>
<path d="M99.6237 96.0059C97.1239 96.9332 94.5134 97.5224 91.8603 97.7583" stroke="#0B214D" stroke-width="0.1" stroke-miterlimit="10"/>
<path d="M101.277 91.9968C97.0008 93.5835 92.535 94.592 87.9961 94.9957" stroke="#0B214D" stroke-width="0.1" stroke-miterlimit="10"/>
<path d="M96.3423 97.6514C97.4933 98.3749 97.2705 94.0984 95.8413 88.1091" stroke="#0B214D" stroke-width="0.1" stroke-miterlimit="10"/>
<path d="M96.3425 97.6472C94.4468 99.0581 91.7529 95.3447 90.323 89.3513" stroke="#0B214D" stroke-width="0.1" stroke-miterlimit="10"/>
<path d="M93.9557 98.1018C94.747 98.1018 95.549 97.9563 96.3417 97.6514C96.2686 97.6547 96.1959 97.6564 96.1226 97.6564C92.2058 97.6561 87.9568 93.0065 86.5536 87.1236C82.3211 88.753 81.6671 89.9653 84.8693 89.9653C85.0857 89.9653 85.3198 89.9597 85.5715 89.9483C86.7504 94.8898 90.2357 98.1018 93.9557 98.1018ZM93.9557 98.1701C93.0277 98.1701 92.1057 97.9733 91.2152 97.5853C90.3387 97.2033 89.5141 96.6459 88.7641 95.9276C87.2194 94.4484 86.0979 92.4064 85.5188 90.019C85.2896 90.0287 85.0713 90.0334 84.8693 90.0334C83.5629 90.0334 82.8642 89.8352 82.7928 89.4442C82.6524 88.6753 85.0737 87.6204 86.5295 87.0599L86.6014 87.0322L86.6194 87.1076C87.2945 89.9376 88.6532 92.5805 90.4454 94.5498C92.2285 96.5088 94.2446 97.5877 96.1226 97.588C96.1947 97.588 96.2673 97.5863 96.3387 97.583L96.7579 97.5643L96.3658 97.7151C95.5814 98.017 94.7706 98.1701 93.9557 98.1701Z" fill="#0B214D"/>
<path d="M91.8591 97.7585C89.8524 97.8486 90.0738 97.2116 92.3547 96.3323" stroke="#0B214D" stroke-width="0.1" stroke-miterlimit="10"/>
<path d="M87.9953 94.9954C84.562 95.1492 84.9418 94.0581 88.8429 92.5564" stroke="#0B214D" stroke-width="0.1" stroke-miterlimit="10"/>
<path d="M96.3417 97.6512C94.9503 98.0348 93.4965 98.1317 92.0671 97.9361C90.6378 97.7405 89.262 97.2563 88.0221 96.5126C86.7821 95.7688 85.7033 94.7807 84.8499 93.6071C83.9965 92.4336 83.3861 91.0987 83.055 89.6819" stroke="#0B214D" stroke-width="0.1" stroke-miterlimit="10"/>
<path d="M96.3422 97.6495C90.6281 98.6811 84.8374 94.6603 83.4109 88.667" stroke="#0B214D" stroke-width="0.1" stroke-miterlimit="10"/>
<path d="M96.1213 97.6559C96.1946 97.6559 96.2682 97.6542 96.3412 97.6509C100.86 95.9114 103.364 89.6442 101.934 83.6506C97.9579 83.83 91.0714 85.384 86.5529 87.1228C87.9564 93.0063 92.2044 97.6559 96.1213 97.6559ZM96.1213 97.7243C94.205 97.7243 92.1535 96.6293 90.3447 94.6417C88.5375 92.656 87.1675 89.9915 86.4871 87.1388L86.4731 87.0804L86.5287 87.0591C91.0439 85.3216 97.9534 83.762 101.931 83.5822L101.987 83.5798L102 83.6345C102.695 86.547 102.493 89.6145 101.431 92.2717C100.367 94.9336 98.5685 96.8665 96.3654 97.7146L96.3551 97.7186L96.3442 97.7193C96.2706 97.7226 96.1956 97.7243 96.1213 97.7243Z" fill="#0B214D"/>
<path d="M92.3541 96.3325C94.8538 95.4045 97.4644 94.8153 100.118 94.5801" stroke="#0B214D" stroke-width="0.1" stroke-miterlimit="10"/>
<path d="M88.8446 92.5565C93.1211 90.9696 97.5871 89.9613 102.126 89.5583" stroke="#0B214D" stroke-width="0.1" stroke-miterlimit="10"/>
<path d="M96.3418 97.651C95.1908 96.9275 93.0954 91.484 91.6662 85.4893" stroke="#0B214D" stroke-width="0.1" stroke-miterlimit="10"/>
<path d="M96.3412 97.6506C98.2368 96.2391 98.6125 90.2361 97.1833 84.2441" stroke="#0B214D" stroke-width="0.1" stroke-miterlimit="10"/>
<path d="M96.3416 97.651C98.7632 97.5423 100.476 95.6434 101.122 92.8217C100.083 95.0812 98.4268 96.8484 96.3416 97.651ZM101.122 92.8217C102.05 90.8024 102.484 88.39 102.291 85.9213C101.894 86.0994 101.448 86.2843 100.952 86.4751C101.511 88.8184 101.536 91.0102 101.122 92.8217ZM102.291 85.9213C105.285 84.5792 105.464 83.6337 102.636 83.6337C102.42 83.6337 102.186 83.6394 101.934 83.6507C102.115 84.4064 102.232 85.1667 102.291 85.9213ZM95.9253 97.7381L96.3175 97.5873C98.305 96.822 99.988 95.1219 101.057 92.7993C101.484 90.9291 101.425 88.748 100.887 86.4911L100.873 86.4327L100.928 86.4114C101.397 86.2309 101.831 86.0517 102.22 85.8786C102.159 85.1343 102.041 84.3904 101.868 83.6668L101.849 83.586L101.931 83.5824C102.181 83.5713 102.418 83.5657 102.636 83.5657C103.932 83.5657 104.63 83.7608 104.711 84.1458C104.831 84.7166 103.511 85.4459 102.362 85.9643C102.542 88.358 102.124 90.799 101.186 92.8441C100.86 94.2642 100.258 95.4596 99.4459 96.3013C98.6022 97.1756 97.5298 97.6661 96.3446 97.7194L95.9253 97.7381Z" fill="#0B214D"/>
<path d="M100.118 94.5793C102.125 94.4891 101.903 95.1259 99.6223 96.0045" stroke="#0B214D" stroke-width="0.1" stroke-miterlimit="10"/>
<path d="M102.124 89.5576C105.557 89.4025 105.177 90.4949 101.276 91.996" stroke="#0B214D" stroke-width="0.1" stroke-miterlimit="10"/>
<path d="M96.3426 97.6507C99.1945 96.8688 101.634 95 103.147 92.438C104.66 89.8761 105.128 86.8214 104.452 83.918" stroke="#0B214D" stroke-width="0.1" stroke-miterlimit="10"/>
<path d="M96.3419 97.6498C102.056 96.6175 105.528 90.9226 104.099 84.9299" stroke="#0B214D" stroke-width="0.1" stroke-miterlimit="10"/>
<path d="M85.5715 89.9489C89.5478 89.7694 96.434 88.2148 100.953 86.4753C99.5491 80.5928 95.3007 75.9429 91.3844 75.9429C91.3109 75.9429 91.2378 75.9446 91.1645 75.9479C86.6458 77.6867 84.1418 83.9546 85.5715 89.9489ZM85.5188 90.0196L85.5058 89.9649C84.811 87.0521 85.0129 83.9846 86.0745 81.327C87.138 78.6648 88.9371 76.7319 91.1404 75.8842L91.1506 75.8802L91.1615 75.8795C91.2352 75.8762 91.3102 75.8745 91.3844 75.8745C93.3004 75.8745 95.3518 76.9694 97.1607 78.9571C98.9679 80.9427 100.338 83.6073 101.018 86.4593L101.032 86.5177L100.977 86.539C96.4612 88.2775 89.5519 89.8374 85.5746 90.0173L85.5188 90.0196Z" fill="#0B214D"/>
<path d="M98.6632 81.0422C94.3868 82.6293 89.9209 83.6377 85.382 84.0411" stroke="#0B214D" stroke-width="0.1" stroke-miterlimit="10"/>
<path d="M95.1509 77.2656C92.6515 78.1937 90.0411 78.7828 87.3881 79.0174" stroke="#0B214D" stroke-width="0.1" stroke-miterlimit="10"/>
<path d="M95.8395 88.1082C94.4096 82.1149 92.3189 76.671 91.1639 75.9468" stroke="#0B214D" stroke-width="0.1" stroke-miterlimit="10"/>
<path d="M90.3227 89.3534C88.8928 83.3608 89.2699 77.3588 91.165 75.9473" stroke="#0B214D" stroke-width="0.1" stroke-miterlimit="10"/>
<path d="M84.8688 89.9644C85.0855 89.9644 85.3198 89.9587 85.5719 89.9474C85.3916 89.1918 85.2739 88.4318 85.2149 87.6768C82.2216 89.0193 82.0429 89.9644 84.8688 89.9644ZM85.2149 87.6768C85.6119 87.499 86.0585 87.3139 86.5541 87.123C85.9949 84.7794 85.9702 82.5869 86.3851 80.7751C85.4567 82.7944 85.0218 85.2078 85.2149 87.6768ZM86.3851 80.7751C87.4237 78.5162 89.0796 76.7498 91.1645 75.9474C88.7434 76.0565 87.0312 77.9541 86.3851 80.7751ZM84.8688 90.0328C83.5738 90.0325 82.8761 89.8373 82.7952 89.4526C82.6752 88.8818 83.9953 88.1526 85.1437 87.6341C84.9645 85.2398 85.3818 82.7981 86.3207 80.7531C86.647 79.3332 87.2486 78.1379 88.0607 77.2965C88.9043 76.4228 89.9765 75.9324 91.1615 75.879L91.5811 75.8604L91.1887 76.0111C89.2015 76.7761 87.5186 78.4755 86.4495 80.7975C86.0224 82.6683 86.0814 84.8498 86.6199 87.107L86.6338 87.1654L86.5782 87.1868C86.1095 87.3672 85.6751 87.5464 85.2862 87.7199C85.3469 88.4638 85.4651 89.2078 85.6377 89.9314L85.657 90.0121L85.575 90.0158C85.3248 90.0268 85.0872 90.0328 84.8688 90.0328Z" fill="#0B214D"/>
<path d="M85.3823 84.0411C81.9491 84.1955 82.3289 83.1038 86.2307 81.6021" stroke="#0B214D" stroke-width="0.1" stroke-miterlimit="10"/>
<path d="M87.3882 79.0177C85.3808 79.1079 85.6036 78.4712 87.8839 77.5925" stroke="#0B214D" stroke-width="0.1" stroke-miterlimit="10"/>
<path d="M83.0554 89.6812C82.3795 86.7778 82.8473 83.7232 84.3602 81.1612C85.8731 78.5991 88.3128 76.7303 91.1648 75.9485" stroke="#0B214D" stroke-width="0.1" stroke-miterlimit="10"/>
<path d="M83.4071 88.6682C81.9779 82.6742 85.4504 76.9796 91.1645 75.9473" stroke="#0B214D" stroke-width="0.1" stroke-miterlimit="10"/>
<path d="M86.5535 87.1229C91.0719 85.3847 97.9583 83.8294 101.935 83.6513C100.755 78.7085 97.27 75.4969 93.5499 75.4969C92.7588 75.4969 91.9568 75.642 91.1645 75.9469C87.1881 76.1264 85.1238 81.1299 86.5535 87.1229ZM86.5058 87.2143L86.4877 87.1389C85.6043 83.4361 86.0213 79.9582 87.603 77.8361C88.5075 76.6228 89.7341 75.9462 91.1505 75.8792C91.9315 75.5799 92.7387 75.4285 93.5499 75.4285C94.4779 75.4285 95.4 75.6253 96.2904 76.0133C97.167 76.3949 97.9917 76.9527 98.7417 77.671C100.298 79.1616 101.425 81.2239 102 83.6353L102.02 83.716L101.937 83.7197C97.9766 83.8972 91.0862 85.4525 86.5777 87.1866L86.5058 87.2143Z" fill="#0B214D"/>
<path d="M86.231 81.6019C90.5074 80.0155 94.9731 79.0073 99.5116 78.6038" stroke="#0B214D" stroke-width="0.1" stroke-miterlimit="10"/>
<path d="M87.8832 77.5928C90.3827 76.6651 92.9931 76.0759 95.6461 75.8403" stroke="#0B214D" stroke-width="0.1" stroke-miterlimit="10"/>
<path d="M91.6654 85.49C90.2355 79.4967 90.0115 75.2246 91.1638 75.9474" stroke="#0B214D" stroke-width="0.1" stroke-miterlimit="10"/>
<path d="M97.1838 84.2446C95.7539 78.2512 93.0593 74.5365 91.1643 75.9473" stroke="#0B214D" stroke-width="0.1" stroke-miterlimit="10"/>
<path d="M100.953 86.475C105.184 84.8466 105.838 83.6343 102.639 83.6343C102.422 83.6343 102.187 83.64 101.935 83.6513C100.756 78.7092 97.27 75.4969 93.5501 75.4969C92.7588 75.4969 91.9573 75.642 91.1647 75.9469C91.2375 75.9436 91.3107 75.9419 91.3838 75.9419C95.3003 75.9419 99.5492 80.5918 100.953 86.475ZM100.905 86.5664L100.887 86.491C100.212 83.6606 98.8529 81.0178 97.0608 79.0485C95.2777 77.0892 93.2616 76.0103 91.3838 76.0103C91.3118 76.0103 91.2391 76.012 91.1677 76.0153L90.7483 76.034L91.1406 75.8832C91.9248 75.5813 92.7354 75.4285 93.5501 75.4285C94.4781 75.4285 95.4002 75.6253 96.2906 76.0133C97.1672 76.3953 97.9919 76.9531 98.7419 77.671C100.287 79.1506 101.408 81.1929 101.987 83.5806C102.217 83.5709 102.436 83.5659 102.639 83.5659C103.944 83.5659 104.642 83.7644 104.713 84.1551C104.853 84.924 102.432 85.9786 100.977 86.5387L100.905 86.5664Z" fill="#0B214D"/>
<path d="M99.5115 78.6037C102.945 78.4493 102.565 79.5413 98.6632 81.0424" stroke="#0B214D" stroke-width="0.1" stroke-miterlimit="10"/>
<path d="M95.6472 75.8408C97.6539 75.7506 97.4319 76.3873 95.1516 77.2653" stroke="#0B214D" stroke-width="0.1" stroke-miterlimit="10"/>
<path d="M104.451 83.9169C104.12 82.5001 103.509 81.165 102.656 79.9913C101.803 78.8177 100.724 77.8294 99.4838 77.0856C98.2438 76.3418 96.8681 75.8577 95.4387 75.6621C94.0093 75.4664 92.5556 75.5633 91.1641 75.947" stroke="#0B214D" stroke-width="0.1" stroke-miterlimit="10"/>
<path d="M104.099 84.9305C102.669 78.9365 96.8788 74.9156 91.1681 75.948" stroke="#0B214D" stroke-width="0.1" stroke-miterlimit="10"/>
<path d="M93.7867 98.1053C93.9244 98.1043 94.1084 98.099 94.2462 98.0943C94.3388 98.0913 94.4616 98.084 94.5538 98.0763C94.8117 98.0549 94.8808 98.0493 95.0568 98.0276C95.1851 98.0126 95.331 97.9949 95.6178 97.9462C95.8335 97.9105 96.0522 97.8638 96.1976 97.8321C96.5849 97.745 96.8947 97.6513 97.0264 97.6109C97.1241 97.5812 97.2766 97.5315 97.3581 97.5035C97.4496 97.4715 97.5643 97.4298 97.6657 97.3921C97.2529 97.5412 96.8107 97.6296 96.3419 97.6513C96.8107 97.6296 97.2529 97.5412 97.6657 97.3921C97.6958 97.381 97.7248 97.37 97.7517 97.36C97.7232 97.371 97.6945 97.3817 97.6657 97.3921C97.6945 97.3817 97.7232 97.371 97.7517 97.36C97.9443 97.2823 98.1996 97.1745 98.3894 97.0905C98.4912 97.0454 98.6248 96.98 98.7243 96.9303C98.8801 96.8506 99.2945 96.6421 99.7372 96.3582C100.041 96.1634 100.434 95.8825 100.716 95.6569C100.925 95.4895 101.197 95.257 101.39 95.0708C101.734 94.7385 102.167 94.2665 102.472 93.8965C102.651 93.6803 102.869 93.3741 103.026 93.1402C103.177 92.9153 103.374 92.6131 103.498 92.3742C103.733 91.9162 104.023 91.2963 104.222 90.8226C104.327 90.5727 104.433 90.2244 104.509 89.9632C104.582 89.7123 104.656 89.3714 104.719 89.1185C104.785 88.8526 104.824 88.4903 104.869 88.2208C104.913 87.9509 104.939 87.5849 104.946 87.3113C104.953 87.0438 104.955 86.6852 104.95 86.4163C104.943 86.0083 104.877 85.4661 104.822 85.0605C104.785 84.7852 104.703 84.4239 104.643 84.1524C104.582 83.8732 104.473 83.5072 104.385 83.2356C104.3 82.9764 104.167 82.6365 104.067 82.3826C103.964 82.1234 103.802 81.7901 103.674 81.5439C103.303 80.8283 102.933 80.3049 102.721 80.0193C102.042 79.1055 101.198 78.2592 100.187 77.5439C99.5663 77.1045 99.0152 76.8096 98.6429 76.6271C98.4201 76.5184 98.1181 76.3819 97.8872 76.2909C97.5963 76.1778 97.2041 76.0373 96.9051 75.9492C96.188 75.7367 95.6289 75.6487 95.3627 75.6103C94.8398 75.5346 94.2855 75.4932 93.7607 75.4932C93.7489 75.4932 93.7369 75.4932 93.7245 75.4932C93.5793 75.4932 93.3984 75.4982 93.2601 75.5035C93.1678 75.5062 93.0447 75.5149 92.9525 75.5212C92.7181 75.5372 92.4156 75.5709 92.2376 75.5973C92.006 75.63 91.9063 75.6477 91.7349 75.6777C91.6903 75.686 91.6305 75.6974 91.5858 75.7067C91.5439 75.716 91.488 75.7264 91.4462 75.7357C91.405 75.7451 91.35 75.7574 91.3087 75.7658C91.228 75.7834 91.1215 75.8098 91.0412 75.8295C91.0007 75.8398 90.9467 75.8538 90.9062 75.8642C90.8323 75.8835 90.6691 75.9296 90.6265 75.9426C90.4544 75.9943 90.4184 76.0046 90.3181 76.0373C90.0946 76.1104 89.9691 76.1571 89.9554 76.1628C89.7177 76.2508 89.7177 76.2508 89.4531 76.3592C89.3612 76.3966 89.2399 76.45 89.1496 76.4914C88.961 76.5784 88.7124 76.7029 88.5266 76.7976C88.4319 76.8463 88.3088 76.9174 88.2156 76.9688C88.0356 77.0682 87.8033 77.2143 87.6323 77.3284C87.4782 77.4305 87.2741 77.5689 87.1265 77.6813C86.9142 77.8435 86.6327 78.0617 86.4334 78.2395C86.26 78.3939 86.0306 78.6028 85.8669 78.7686C85.677 78.9614 85.4281 79.2236 85.256 79.4325C85.0979 79.6243 84.8884 79.8828 84.742 80.084C84.5833 80.3022 84.3777 80.5991 84.2398 80.8313C83.9793 81.2713 83.6654 81.8788 83.4567 82.3462C83.3459 82.5944 83.222 82.936 83.1352 83.1936C83.0524 83.4408 82.9596 83.7751 82.8917 84.026C82.8203 84.2892 82.7512 84.6468 82.7058 84.9144C82.6616 85.1749 82.622 85.5259 82.5937 85.7891C82.5639 86.0623 82.5519 86.4303 82.5496 86.7058C82.5472 86.9754 82.5644 87.3357 82.5787 87.6046C82.5932 87.8865 82.6306 88.2608 82.6843 88.537C82.7882 89.0728 82.9358 89.7861 83.103 90.3038C83.2697 90.8209 83.5559 91.4885 83.7924 91.9772C83.913 92.2244 84.0982 92.5427 84.2421 92.7779C84.3803 93.0024 84.5815 93.2917 84.7331 93.5072C84.8898 93.731 85.1208 94.0119 85.2982 94.2188C85.4676 94.4153 85.7099 94.6635 85.8888 94.8516C86.0772 95.0491 86.3513 95.29 86.5598 95.4668C86.7559 95.6316 87.0256 95.8424 87.2334 95.9922C87.8774 96.4566 88.3572 96.7075 88.7428 96.9097C89.0033 97.0464 89.3637 97.2019 89.6356 97.3123C89.8609 97.4051 90.1675 97.5108 90.3986 97.5859C90.7201 97.6916 91.1581 97.8031 91.4893 97.8721C92.1478 98.0099 92.6543 98.0519 92.8206 98.066C93.1095 98.0903 93.4964 98.1053 93.7867 98.1053ZM93.7872 98.1737H93.7869H93.7867C93.4864 98.1737 93.0959 98.1577 92.815 98.134L92.8111 98.1337C92.6434 98.1197 92.1331 98.0766 91.4756 97.9392C91.1075 97.8624 90.6765 97.749 90.3776 97.6509C90.2367 97.6052 89.8794 97.4865 89.61 97.3757C89.4424 97.3077 89.0186 97.1315 88.7116 96.9704L88.7054 96.967C88.3192 96.7645 87.8385 96.5127 87.1941 96.0479C86.9889 95.8998 86.7167 95.6876 86.5165 95.5192C86.3144 95.348 86.0331 95.1015 85.84 94.899C85.8035 94.8606 85.7644 94.8196 85.7238 94.7772C85.5641 94.6104 85.3831 94.4213 85.2471 94.2635C85.1099 94.1037 84.8537 93.7981 84.6778 93.5465C84.5205 93.323 84.3221 93.0374 84.1846 92.8139C84.0965 92.6701 83.8763 92.3035 83.7316 92.0076C83.5135 91.5569 83.2171 90.8783 83.0386 90.3249C82.867 89.7934 82.7163 89.0575 82.6178 88.55C82.5595 88.2501 82.5244 87.8668 82.511 87.6083C82.4963 87.3284 82.4796 86.9727 82.4819 86.7052C82.4833 86.5377 82.4904 86.112 82.5264 85.7817C82.5556 85.5095 82.5948 85.1639 82.6391 84.9027C82.6669 84.7385 82.7411 84.3225 82.8264 84.0079C82.8906 83.7707 82.9859 83.4258 83.0711 83.1716C83.1239 83.0148 83.2611 82.6181 83.3949 82.3182C83.6049 81.8481 83.9211 81.2366 84.1817 80.7963C84.349 80.5144 84.5911 80.1761 84.6874 80.0436C84.8043 79.8832 84.9781 79.6627 85.204 79.3888C85.3969 79.1546 85.6721 78.8697 85.8189 78.7205C85.9856 78.5514 86.2208 78.3379 86.3886 78.1881C86.5886 78.01 86.8661 77.7944 87.0856 77.627C87.2356 77.5125 87.4455 77.3704 87.5951 77.2713C87.7541 77.1653 87.9922 77.0141 88.1831 76.9087C88.2121 76.8927 88.2439 76.875 88.2769 76.8563C88.352 76.8143 88.4296 76.7709 88.4959 76.7369C88.6407 76.6628 88.9142 76.5251 89.1214 76.4293C89.2 76.3933 89.3272 76.3369 89.4278 76.2959C89.6934 76.1871 89.6934 76.1871 89.9321 76.0987C89.9425 76.0944 90.0644 76.0483 90.2972 75.9723C90.383 75.9442 90.422 75.9326 90.5373 75.8982L90.6072 75.8772C90.6489 75.8645 90.8133 75.8178 90.8891 75.7981L90.9583 75.7804L91.0246 75.7631L91.05 75.7571C91.1261 75.7384 91.2209 75.715 91.2943 75.699C91.3363 75.6904 91.3906 75.6783 91.4313 75.669C91.4531 75.6643 91.4783 75.659 91.5035 75.654C91.5273 75.6493 91.5509 75.6447 91.5713 75.64C91.6172 75.6303 91.6776 75.619 91.7226 75.6106L91.737 75.608C91.9021 75.5789 92.0017 75.5616 92.2283 75.5296C92.3987 75.5042 92.7011 75.4698 92.9479 75.4532L92.9617 75.4522C93.0541 75.4458 93.1692 75.4378 93.2582 75.4351C93.3613 75.4315 93.56 75.4248 93.7245 75.4248H93.7612C94.2829 75.4248 94.8403 75.4655 95.3723 75.5426C95.5655 75.5706 96.1534 75.6553 96.9242 75.8839C97.2407 75.9769 97.6418 76.1224 97.9116 76.2271C98.1248 76.3112 98.4233 76.444 98.6724 76.5658C99.2129 76.8306 99.7356 77.1409 100.226 77.4879C101.204 78.1801 102.062 79.0181 102.775 79.9783C103.142 80.4723 103.455 80.9741 103.734 81.5122C103.812 81.6613 104.005 82.0423 104.13 82.3572C104.241 82.6388 104.366 82.9607 104.449 83.2143C104.491 83.3421 104.633 83.7864 104.71 84.1377L104.725 84.2081C104.783 84.4703 104.855 84.7966 104.889 85.0511C104.97 85.6473 105.012 86.0933 105.018 86.4149C105.023 86.6681 105.021 87.0291 105.014 87.313C105.007 87.5676 104.983 87.9425 104.935 88.2321C104.922 88.3148 104.909 88.4059 104.895 88.5023C104.863 88.7215 104.831 88.9484 104.785 89.1352C104.764 89.2169 104.743 89.308 104.72 89.4024C104.673 89.6033 104.623 89.8114 104.574 89.9826C104.502 90.2291 104.395 90.5877 104.284 90.8493C104.086 91.32 103.794 91.9455 103.558 92.4056C103.43 92.6518 103.225 92.9644 103.082 93.1786C103.01 93.2863 102.756 93.66 102.524 93.9402C102.21 94.3208 101.774 94.7952 101.437 95.1202C101.229 95.3203 100.95 95.5565 100.758 95.7103C100.478 95.9345 100.082 96.2181 99.7734 96.4159C99.3501 96.6875 98.9507 96.8913 98.7801 96.9784L98.7548 96.9914C98.658 97.0398 98.5211 97.1068 98.4166 97.1532C98.2314 97.2349 97.9743 97.3437 97.7768 97.4234C97.7765 97.4238 97.7762 97.4238 97.7758 97.4238C97.7471 97.4351 97.7182 97.4458 97.6891 97.4561C97.6891 97.4561 97.6891 97.4561 97.689 97.4561C97.689 97.4564 97.6888 97.4564 97.6887 97.4564C97.6043 97.4878 97.4825 97.5325 97.3802 97.5682C97.2998 97.5959 97.1464 97.6459 97.0459 97.6763C96.9398 97.709 96.6164 97.8081 96.2123 97.8988C96.0499 97.9342 95.8373 97.9792 95.6288 98.0136C95.3291 98.0646 95.1762 98.0823 95.0646 98.0953C94.8889 98.117 94.8203 98.1227 94.5648 98.144L94.5593 98.1444C94.4637 98.1524 94.3387 98.1597 94.2484 98.1627C94.1165 98.167 93.9295 98.1727 93.7872 98.1737Z" fill="#0B214D"/>
<path d="M93.9558 98.102C94.7474 98.102 95.549 97.9569 96.3419 97.6516C100.318 97.4728 102.382 92.4693 100.953 86.4757C96.434 88.2145 89.5479 89.7698 85.5715 89.9486C86.7504 94.8897 90.2361 98.1017 93.9558 98.102ZM93.9566 98.1704V98.102L93.9564 98.1704C93.0278 98.1704 92.1059 97.9736 91.2155 97.5856C90.3389 97.2036 89.5142 96.6458 88.7643 95.9275C87.2077 94.4373 86.0809 92.3753 85.5058 89.9646L85.4865 89.8839L85.5686 89.8802C89.531 89.702 96.4214 88.1461 100.928 86.412L101 86.3843L101.018 86.4597C101.902 90.1631 101.485 93.641 99.9027 95.7631C98.9983 96.9764 97.772 97.6526 96.3559 97.7194C95.5746 98.0186 94.7674 98.1704 93.9566 98.1704Z" fill="#0B214D"/>
<path d="M99.6233 96.0059C97.1234 96.9332 94.5129 97.5224 91.8598 97.7583" stroke="#0B214D" stroke-width="0.1" stroke-miterlimit="10"/>
<path d="M101.277 91.9966C97.0004 93.5833 92.5345 94.5917 87.9956 94.9954" stroke="#0B214D" stroke-width="0.1" stroke-miterlimit="10"/>
<path d="M96.3418 97.6511C97.4928 98.3747 97.27 94.0981 95.8408 88.1089" stroke="#0B214D" stroke-width="0.1" stroke-miterlimit="10"/>
<path d="M96.342 97.647C94.4463 99.0578 91.7524 95.3444 90.3225 89.3511" stroke="#0B214D" stroke-width="0.1" stroke-miterlimit="10"/>
<path d="M93.9552 98.1015C94.7465 98.1015 95.5485 97.9561 96.3412 97.6511C96.2681 97.6545 96.1954 97.6561 96.1221 97.6561C92.2053 97.6558 87.9563 93.0063 86.5531 87.1234C82.3206 88.7527 81.6666 89.9651 84.8688 89.9651C85.0852 89.9651 85.3193 89.9594 85.571 89.9481C86.7499 94.8895 90.2352 98.1015 93.9552 98.1015ZM93.9552 98.1699C93.0272 98.1699 92.1052 97.9731 91.2148 97.5851C90.3382 97.2031 89.5136 96.6456 88.7637 95.9274C87.2189 94.4481 86.0974 92.4061 85.5183 90.0188C85.2891 90.0285 85.0708 90.0331 84.8688 90.0331C83.5624 90.0331 82.8637 89.835 82.7923 89.444C82.6519 88.675 85.0732 87.6201 86.529 87.0597L86.6009 87.032L86.6189 87.1074C87.294 89.9374 88.6527 92.5803 90.4449 94.5496C92.228 96.5085 94.2441 97.5874 96.1221 97.5878C96.1942 97.5878 96.2668 97.5861 96.3382 97.5828L96.7574 97.5641L96.3653 97.7149C95.5809 98.0168 94.7701 98.1699 93.9552 98.1699Z" fill="#0B214D"/>
<path d="M91.8586 97.7582C89.8519 97.8484 90.0733 97.2114 92.3542 96.332" stroke="#0B214D" stroke-width="0.1" stroke-miterlimit="10"/>
<path d="M87.9948 94.9954C84.5615 95.1492 84.9413 94.0581 88.8424 92.5564" stroke="#0B214D" stroke-width="0.1" stroke-miterlimit="10"/>
<path d="M96.3412 97.6509C94.9498 98.0346 93.496 98.1314 92.0667 97.9358C90.6373 97.7402 89.2615 97.256 88.0216 96.5123C86.7816 95.7686 85.7028 94.7805 84.8494 93.6069C83.996 92.4333 83.3856 91.0984 83.0545 89.6816" stroke="#0B214D" stroke-width="0.1" stroke-miterlimit="10"/>
<path d="M96.3417 97.6492C90.6276 98.6809 84.837 94.6601 83.4104 88.6667" stroke="#0B214D" stroke-width="0.1" stroke-miterlimit="10"/>
<path d="M96.1208 97.6556C96.1941 97.6556 96.2677 97.654 96.3407 97.6506C100.859 95.9112 103.363 89.644 101.934 83.6503C97.9575 83.8298 91.0709 85.3838 86.5524 87.1225C87.9559 93.0061 92.2039 97.6556 96.1208 97.6556ZM96.1208 97.724C94.2045 97.724 92.153 96.6291 90.3442 94.6414C88.537 92.6558 87.167 89.9913 86.4866 87.1385L86.4726 87.0802L86.5282 87.0588C91.0434 85.3214 97.9529 83.7617 101.931 83.5819L101.986 83.5796L101.999 83.6343C102.694 86.5467 102.492 89.6143 101.43 92.2715C100.367 94.9334 98.568 96.8663 96.3649 97.7143L96.3546 97.7183L96.3437 97.719C96.2701 97.7223 96.1951 97.724 96.1208 97.724Z" fill="#0B214D"/>
<path d="M92.3537 96.3323C94.8533 95.4043 97.4639 94.815 100.117 94.5798" stroke="#0B214D" stroke-width="0.1" stroke-miterlimit="10"/>
<path d="M88.8441 92.5563C93.1206 90.9693 97.5866 89.9611 102.125 89.5581" stroke="#0B214D" stroke-width="0.1" stroke-miterlimit="10"/>
<path d="M96.3413 97.651C95.1903 96.9275 93.0949 91.484 91.6657 85.4893" stroke="#0B214D" stroke-width="0.1" stroke-miterlimit="10"/>
<path d="M96.3407 97.6504C98.2364 96.2388 98.612 90.2359 97.1828 84.2439" stroke="#0B214D" stroke-width="0.1" stroke-miterlimit="10"/>
<path d="M96.3411 97.651C98.7627 97.5423 100.475 95.6434 101.121 92.8217C100.083 95.0812 98.4263 96.8484 96.3411 97.651ZM101.121 92.8217C102.049 90.8024 102.484 88.39 102.291 85.9213C101.894 86.0994 101.447 86.2843 100.952 86.4751C101.511 88.8184 101.536 91.0102 101.121 92.8217ZM102.291 85.9213C105.284 84.5792 105.463 83.6337 102.636 83.6337C102.419 83.6337 102.185 83.6394 101.934 83.6507C102.114 84.4064 102.232 85.1667 102.291 85.9213ZM95.9248 97.7381L96.317 97.5873C98.3045 96.822 99.9875 95.1219 101.057 92.7993C101.483 90.9291 101.424 88.748 100.886 86.4911L100.872 86.4327L100.928 86.4114C101.397 86.2309 101.831 86.0517 102.219 85.8786C102.159 85.1343 102.041 84.3904 101.868 83.6668L101.849 83.586L101.931 83.5824C102.181 83.5713 102.418 83.5657 102.636 83.5657C103.931 83.5657 104.63 83.7608 104.71 84.1458C104.83 84.7166 103.51 85.4459 102.362 85.9643C102.541 88.358 102.124 90.799 101.185 92.8441C100.859 94.2642 100.258 95.4596 99.4454 96.3013C98.6017 97.1756 97.5293 97.6661 96.3441 97.7194L95.9248 97.7381Z" fill="#0B214D"/>
<path d="M100.117 94.5791C102.124 94.4889 101.902 95.1256 99.6218 96.0043" stroke="#0B214D" stroke-width="0.1" stroke-miterlimit="10"/>
<path d="M102.123 89.5574C105.556 89.4023 105.176 90.4947 101.275 91.9958" stroke="#0B214D" stroke-width="0.1" stroke-miterlimit="10"/>
<path d="M96.3421 97.6507C99.1941 96.8688 101.634 95 103.146 92.438C104.659 89.8761 105.127 86.8214 104.452 83.918" stroke="#0B214D" stroke-width="0.1" stroke-miterlimit="10"/>
<path d="M96.3414 97.6496C102.056 96.6172 105.528 90.9223 104.099 84.9297" stroke="#0B214D" stroke-width="0.1" stroke-miterlimit="10"/>
<path d="M85.5711 89.9489C89.5473 89.7694 96.4335 88.2148 100.952 86.4753C99.5486 80.5928 95.3002 75.9429 91.3839 75.9429C91.3104 75.9429 91.2373 75.9446 91.164 75.9479C86.6453 77.6867 84.1413 83.9546 85.5711 89.9489ZM85.5183 90.0196L85.5053 89.9649C84.8105 87.0521 85.0125 83.9846 86.074 81.327C87.1375 78.6648 88.9366 76.7319 91.1399 75.8842L91.1501 75.8802L91.161 75.8795C91.2347 75.8762 91.3097 75.8745 91.3839 75.8745C93.2999 75.8745 95.3513 76.9694 97.1602 78.9571C98.9674 80.9427 100.337 83.6073 101.018 86.4593L101.032 86.5177L100.976 86.539C96.4607 88.2775 89.5514 89.8374 85.5741 90.0173L85.5183 90.0196Z" fill="#0B214D"/>
<path d="M98.6628 81.0422C94.3863 82.6293 89.9204 83.6377 85.3815 84.0411" stroke="#0B214D" stroke-width="0.1" stroke-miterlimit="10"/>
<path d="M95.1504 77.2654C92.651 78.1935 90.0406 78.7825 87.3876 79.0172" stroke="#0B214D" stroke-width="0.1" stroke-miterlimit="10"/>
<path d="M95.839 88.108C94.4091 82.1146 92.3184 76.6708 91.1634 75.9465" stroke="#0B214D" stroke-width="0.1" stroke-miterlimit="10"/>
<path d="M90.3222 89.3534C88.8923 83.3608 89.2695 77.3588 91.1645 75.9473" stroke="#0B214D" stroke-width="0.1" stroke-miterlimit="10"/>
<path d="M84.8683 89.9642C85.085 89.9642 85.3193 89.9585 85.5714 89.9471C85.3911 89.1915 85.2734 88.4316 85.2144 87.6766C82.2212 89.019 82.0424 89.9642 84.8683 89.9642ZM85.2144 87.6766C85.6114 87.4988 86.058 87.3136 86.5536 87.1228C85.9944 84.7792 85.9697 82.5867 86.3846 80.7749C85.4562 82.7942 85.0213 85.2075 85.2144 87.6766ZM86.3846 80.7749C87.4232 78.516 89.0792 76.7495 91.1641 75.9472C88.743 76.0563 87.0307 77.9538 86.3846 80.7749ZM84.8683 90.0326C83.5733 90.0322 82.8756 89.8371 82.7947 89.4524C82.6747 88.8816 83.9948 88.1523 85.1432 87.6339C84.964 85.2396 85.3814 82.7979 86.3202 80.7528C86.6465 79.333 87.2481 78.1377 88.0602 77.2963C88.9038 76.4226 89.976 75.9322 91.161 75.8788L91.5806 75.8601L91.1882 76.0109C89.201 76.7759 87.5181 78.4753 86.449 80.7972C86.0219 82.6681 86.0809 84.8496 86.6194 87.1068L86.6333 87.1652L86.5777 87.1865C86.109 87.367 85.6746 87.5462 85.2857 87.7196C85.3464 88.4636 85.4647 89.2075 85.6372 89.9311L85.6565 90.0119L85.5745 90.0155C85.3243 90.0265 85.0867 90.0326 84.8683 90.0326Z" fill="#0B214D"/>
<path d="M85.3818 84.0408C81.9486 84.1952 82.3284 83.1036 86.2302 81.6018" stroke="#0B214D" stroke-width="0.1" stroke-miterlimit="10"/>
<path d="M87.3877 79.0175C85.3803 79.1077 85.6031 78.4709 87.8834 77.5923" stroke="#0B214D" stroke-width="0.1" stroke-miterlimit="10"/>
<path d="M83.0549 89.6812C82.3791 86.7778 82.8468 83.7232 84.3597 81.1612C85.8726 78.5991 88.3123 76.7303 91.1644 75.9485" stroke="#0B214D" stroke-width="0.1" stroke-miterlimit="10"/>
<path d="M83.4066 88.6679C81.9774 82.6739 85.4499 76.9794 91.164 75.947" stroke="#0B214D" stroke-width="0.1" stroke-miterlimit="10"/>
<path d="M86.553 87.1229C91.0714 85.3847 97.9578 83.8294 101.934 83.6513C100.755 78.7085 97.2695 75.4969 93.5494 75.4969C92.7583 75.4969 91.9563 75.642 91.164 75.9469C87.1876 76.1264 85.1233 81.1299 86.553 87.1229ZM86.5053 87.2143L86.4873 87.1389C85.6039 83.4361 86.0208 79.9582 87.6026 77.8361C88.507 76.6228 89.7336 75.9462 91.15 75.8792C91.931 75.5799 92.7382 75.4285 93.5494 75.4285C94.4774 75.4285 95.3995 75.6253 96.2899 76.0133C97.1665 76.3949 97.9913 76.9527 98.7412 77.671C100.298 79.1616 101.425 81.2239 102 83.6353L102.019 83.716L101.937 83.7197C97.9761 83.8972 91.0857 85.4525 86.5772 87.1866L86.5053 87.2143Z" fill="#0B214D"/>
<path d="M86.2305 81.6017C90.5069 80.0153 94.9726 79.007 99.5112 78.6035" stroke="#0B214D" stroke-width="0.1" stroke-miterlimit="10"/>
<path d="M87.8827 77.5925C90.3822 76.6649 92.9926 76.0756 95.6456 75.8401" stroke="#0B214D" stroke-width="0.1" stroke-miterlimit="10"/>
<path d="M91.6649 85.4898C90.235 79.4964 90.011 75.2243 91.1633 75.9472" stroke="#0B214D" stroke-width="0.1" stroke-miterlimit="10"/>
<path d="M97.1833 84.2443C95.7534 78.251 93.0588 74.5362 91.1638 75.9471" stroke="#0B214D" stroke-width="0.1" stroke-miterlimit="10"/>
<path d="M100.952 86.475C105.184 84.8466 105.838 83.6343 102.638 83.6343C102.421 83.6343 102.187 83.64 101.934 83.6513C100.755 78.7092 97.2696 75.4969 93.5496 75.4969C92.7583 75.4969 91.9569 75.642 91.1642 75.9469C91.237 75.9436 91.3102 75.9419 91.3833 75.9419C95.2999 75.9419 99.5487 80.5918 100.952 86.475ZM100.904 86.5664L100.886 86.491C100.211 83.6606 98.8524 81.0178 97.0603 79.0485C95.2772 77.0892 93.2611 76.0103 91.3833 76.0103C91.3113 76.0103 91.2386 76.012 91.1672 76.0153L90.7478 76.034L91.1401 75.8832C91.9243 75.5813 92.735 75.4285 93.5496 75.4285C94.4776 75.4285 95.3997 75.6253 96.2901 76.0133C97.1667 76.3953 97.9915 76.9531 98.7414 77.671C100.286 79.1506 101.408 81.1929 101.987 83.5806C102.217 83.5709 102.436 83.5659 102.638 83.5659C103.943 83.5659 104.641 83.7644 104.713 84.1551C104.853 84.924 102.432 85.9786 100.976 86.5387L100.904 86.5664Z" fill="#0B214D"/>
<path d="M99.511 78.6034C102.944 78.449 102.564 79.541 98.6627 81.0421" stroke="#0B214D" stroke-width="0.1" stroke-miterlimit="10"/>
<path d="M95.6467 75.8405C97.6534 75.7504 97.4314 76.3871 95.1512 77.2651" stroke="#0B214D" stroke-width="0.1" stroke-miterlimit="10"/>
<path d="M104.45 83.9172C104.119 82.5003 103.509 81.1652 102.656 79.9916C101.802 78.8179 100.723 77.8296 99.4833 77.0858C98.2433 76.342 96.8676 75.8579 95.4382 75.6623C94.0088 75.4667 92.5551 75.5636 91.1636 75.9472" stroke="#0B214D" stroke-width="0.1" stroke-miterlimit="10"/>
<path d="M104.099 84.9305C102.669 78.9365 96.8783 74.9156 91.1676 75.948" stroke="#0B214D" stroke-width="0.1" stroke-miterlimit="10"/>
<path d="M93.8058 98.1065C93.9529 98.1065 94.1162 98.1018 94.2467 98.0945C94.3343 98.0908 94.4518 98.0851 94.5389 98.0778C94.8067 98.0561 94.9065 98.0488 95.053 98.0291C95.1174 98.0218 95.2035 98.0114 95.268 98.0021C95.3728 97.9871 95.5125 97.9654 95.6171 97.9487C95.7953 97.9187 95.9951 97.8766 96.0607 97.8633C96.3178 97.8089 96.6318 97.7305 96.8806 97.6564C97.0295 97.6124 97.3396 97.5197 97.7525 97.3615C97.808 97.3402 97.8627 97.3178 97.9171 97.2941C97.8627 97.3178 97.808 97.3402 97.7525 97.3615C97.8037 97.3405 97.8594 97.3178 97.9171 97.2941C100.103 96.3474 101.407 93.6318 101.407 90.1669C101.407 89.0076 101.261 87.7646 100.954 86.4758C100.952 86.4678 100.95 86.4601 100.948 86.4521C100.947 86.4508 100.947 86.4485 100.947 86.4471C100.943 86.4311 100.939 86.4151 100.935 86.3991C100.935 86.3988 100.935 86.3988 100.935 86.3984C99.5126 80.5526 95.2845 75.9437 91.3856 75.9427C91.3853 75.9427 91.3852 75.9427 91.3851 75.9427H91.385C91.3129 75.9427 91.2404 75.9444 91.1686 75.9477C91.1674 75.9477 91.1664 75.9477 91.1651 75.9477C91.1664 75.9477 91.1674 75.9477 91.1686 75.9477C91.2407 75.9444 91.3127 75.9427 91.385 75.9427H91.3851C91.3852 75.9427 91.3853 75.9427 91.3856 75.9427C95.2848 75.9431 99.5125 80.5522 100.935 86.3984C100.935 86.3988 100.935 86.3988 100.935 86.3991C100.939 86.4151 100.943 86.4311 100.947 86.4471C100.947 86.4485 100.947 86.4508 100.948 86.4521C100.95 86.4601 100.952 86.4678 100.954 86.4758C101.261 87.7646 101.407 89.0076 101.407 90.1669C101.407 93.6318 100.103 96.3474 97.9171 97.2941C98.0765 97.2288 98.2514 97.156 98.39 97.092C98.4915 97.0449 98.6249 96.9786 98.7252 96.9308C98.9335 96.8298 99.2041 96.6806 99.4037 96.5639C99.8305 96.3127 100.289 96.0077 100.823 95.5721C101.133 95.3175 101.533 94.9579 101.804 94.6613C102.01 94.4364 102.28 94.1339 102.472 93.898C102.63 93.7032 102.828 93.4316 102.97 93.2248C103.198 92.8915 103.535 92.3624 103.864 91.6678C104.035 91.3062 104.284 90.7334 104.498 90.0031C104.604 89.6415 104.766 89.0293 104.865 88.253C104.9 87.9804 104.932 87.6144 104.945 87.3402C104.958 87.0713 104.961 86.7137 104.952 86.4448C104.917 85.3662 104.729 84.295 104.394 83.2625C104.147 82.5022 103.868 81.9197 103.688 81.5694C103.565 81.3326 103.385 81.0263 103.25 80.7961C103.111 80.5629 102.896 80.269 102.741 80.0461C102.592 79.8316 102.364 79.5668 102.196 79.3653C102.024 79.1584 101.774 78.9002 101.582 78.711C101.034 78.1716 100.539 77.7969 100.241 77.5834C99.6211 77.1397 99.0794 76.8475 98.7487 76.681C98.4956 76.5526 98.1528 76.3918 97.8874 76.2924C97.668 76.21 97.3764 76.0959 97.1523 76.0265C96.8564 75.9347 96.4588 75.8213 96.1561 75.7559C95.4792 75.6108 95.0766 75.5658 94.5272 75.5217C94.2158 75.4964 93.7991 75.4964 93.4865 75.4964C93.3311 75.4964 93.1238 75.5087 92.9686 75.5207C92.8002 75.5341 92.4863 75.5574 92.0618 75.6238C91.8157 75.6612 91.5273 75.7166 91.3094 75.7663C91.2271 75.7859 91.0742 75.8213 90.907 75.8653C90.7851 75.8974 90.6896 75.9234 90.4812 75.9871C90.2575 76.0555 89.9727 76.1539 89.7554 76.239C89.575 76.3084 89.338 76.4105 89.1608 76.4872C89.0669 76.5282 88.9436 76.5893 88.8509 76.634C88.7073 76.7024 88.3987 76.8645 88.2164 76.9703C87.5142 77.3796 87.1395 77.6642 86.7016 78.0135C86.5008 78.1743 86.2458 78.4058 86.0591 78.5836C85.8894 78.7437 85.6739 78.9693 85.5142 79.1407C85.2897 79.3813 85.0124 79.7232 84.8148 79.9881C84.5629 80.324 84.2062 80.8401 83.8523 81.5144C83.2821 82.6013 82.9069 83.7419 82.7117 84.8832C82.6535 85.2248 82.5584 85.8643 82.5503 86.678C82.5465 87.0787 82.5603 87.7239 82.6809 88.5122C82.7241 88.7941 82.792 89.1704 82.8634 89.4466C83.0018 89.9794 83.1999 90.693 83.4305 91.1921C83.6502 91.6705 83.9527 92.3053 84.2274 92.753C84.6299 93.4093 85.0229 93.897 85.2752 94.1919C85.7803 94.7811 86.2454 95.1987 86.5216 95.4346C86.717 95.6011 86.9856 95.8129 87.1932 95.9637C87.4104 96.1208 87.7104 96.3167 87.9368 96.4608C88.1494 96.5966 88.4473 96.7537 88.6693 96.8738C88.9071 97.0002 89.2352 97.148 89.484 97.2521C90.2329 97.5647 90.8442 97.7212 91.1032 97.7856C91.8427 97.9674 92.427 98.0311 92.6934 98.0554C92.9842 98.0835 93.3734 98.0985 93.6652 98.1048C93.709 98.1062 93.7565 98.1065 93.8058 98.1065ZM93.8058 98.1749C93.7558 98.1749 93.7077 98.1742 93.6634 98.1732C93.4847 98.1692 93.031 98.1565 92.687 98.1235C92.1637 98.0758 91.6254 97.9844 91.0871 97.8519C90.8771 97.7996 90.2384 97.6411 89.4581 97.3152C89.2226 97.2168 88.8835 97.065 88.6377 96.9342L88.5437 96.8835C88.3401 96.7737 88.0866 96.6373 87.9007 96.5185C87.7245 96.4064 87.3932 96.1926 87.1538 96.0191C86.9473 95.8693 86.6757 95.6551 86.478 95.4866C86.0268 95.1017 85.6049 94.681 85.224 94.2366C84.8339 93.7806 84.4793 93.2935 84.1698 92.7891C83.9542 92.4374 83.6923 91.9247 83.3691 91.2208C83.1338 90.7113 82.9304 89.9741 82.798 89.464C82.7073 89.1133 82.6342 88.655 82.614 88.5225C82.521 87.915 82.4768 87.2942 82.4827 86.6773C82.4886 86.0765 82.5432 85.469 82.645 84.8715C82.8474 83.6882 83.2334 82.5479 83.7925 81.4823C84.0759 80.9426 84.4017 80.4258 84.7609 79.9467C84.9829 79.6492 85.2594 79.3142 85.4649 79.094C85.5885 78.9612 85.8242 78.7117 86.0129 78.5336C86.0991 78.4515 86.401 78.1669 86.6596 77.9601C87.0844 77.6211 87.4662 77.3286 88.1825 76.9112C88.369 76.8028 88.6793 76.64 88.822 76.5723L88.8826 76.5429C88.965 76.5029 89.0583 76.4575 89.1339 76.4245C89.3439 76.3337 89.5613 76.2407 89.7312 76.1753C89.9447 76.0915 90.2315 75.9921 90.4615 75.9217C90.6757 75.8563 90.7741 75.8296 90.8899 75.7993C91.0302 75.7623 91.1608 75.7312 91.2474 75.7109L91.2938 75.6999C91.5241 75.6472 91.8142 75.5924 92.0518 75.5561C92.4611 75.4924 92.7739 75.4677 92.9419 75.4543L92.9633 75.4527C93.0589 75.4453 93.3008 75.428 93.4865 75.428C93.7954 75.428 94.2185 75.428 94.5326 75.4537C95.1162 75.5004 95.5101 75.5474 96.1702 75.6892C96.4274 75.7446 96.802 75.8463 97.1722 75.9611C97.3571 76.0185 97.5839 76.1045 97.7839 76.1803C97.8281 76.197 97.8707 76.2133 97.911 76.2283C98.2526 76.3564 98.6618 76.5606 98.7791 76.62C99.2998 76.8819 99.8047 77.1874 100.28 77.5277C100.756 77.868 101.21 78.2497 101.629 78.662C101.745 78.7764 102.038 79.0693 102.248 79.3212C102.276 79.3542 102.305 79.3893 102.335 79.425C102.492 79.6125 102.67 79.825 102.796 80.0068C102.83 80.0548 102.866 80.1062 102.904 80.1592C103.041 80.3544 103.197 80.5756 103.308 80.7607C103.458 81.0166 103.629 81.3082 103.748 81.5377C104.029 82.0828 104.268 82.656 104.458 83.2411C104.796 84.28 104.985 85.3569 105.02 86.4425C105.029 86.716 105.026 87.0783 105.013 87.3435C105 87.6221 104.967 87.9911 104.932 88.2616C104.856 88.8548 104.732 89.4473 104.563 90.0224C104.396 90.5916 104.181 91.155 103.925 91.6972C103.669 92.2379 103.366 92.7651 103.026 93.2635C102.895 93.4536 102.695 93.7312 102.524 93.9414C102.328 94.1826 102.052 94.4912 101.854 94.7077C101.565 95.0239 101.154 95.3889 100.865 95.6251C100.395 96.0097 99.9411 96.3267 99.4379 96.6229C99.2536 96.7307 98.9774 96.8841 98.7546 96.9926C98.7137 97.0119 98.6679 97.0339 98.6211 97.057C98.5513 97.0906 98.4791 97.126 98.4183 97.154C98.2736 97.2208 98.0885 97.2978 97.9432 97.3572C97.8884 97.3809 97.8323 97.4039 97.7766 97.4253C97.3491 97.5891 97.0341 97.6821 96.8996 97.7222C96.6591 97.7936 96.3429 97.8733 96.0746 97.93L96.0428 97.9367C95.959 97.954 95.7848 97.9897 95.6282 98.0161C95.4968 98.0371 95.3658 98.0571 95.2775 98.0698C95.2058 98.0801 95.1107 98.0911 95.0606 98.0971C94.9258 98.1152 94.8328 98.1225 94.6078 98.1409L94.5444 98.1459C94.4741 98.1519 94.3748 98.1575 94.2495 98.1629C94.1133 98.1702 93.9472 98.1749 93.8058 98.1749Z" fill="#0B214D"/>
<defs>
<filter id="filter0_d" x="0" y="0" width="147.989" height="138.88" filterUnits="userSpaceOnUse" color-interpolation-filters="sRGB">
<feFlood flood-opacity="0" result="BackgroundImageFix"/>
<feColorMatrix in="SourceAlpha" type="matrix" values="0 0 0 0 0 0 0 0 0 0 0 0 0 0 0 0 0 0 127 0"/>
<feOffset dy="3"/>
<feGaussianBlur stdDeviation="3"/>
<feColorMatrix type="matrix" values="0 0 0 0 0 0 0 0 0 0 0 0 0 0 0 0 0 0 0.161 0"/>
<feBlend mode="normal" in2="BackgroundImageFix" result="effect1_dropShadow"/>
<feBlend mode="normal" in="SourceGraphic" in2="effect1_dropShadow" result="shape"/>
</filter>
</defs>
</svg>
